<?xml version="1.0" encoding="UTF-8"?>
<svg xmlns="http://www.w3.org/2000/svg" width="429" height="550" viewBox="0 0 429 550" shape-rendering="geometricPrecision">
  <path d="M 38 48 L 38 49 L 38 50 L 38 51 L 38 52 L 38 53 L 38 54 L 38 55 L 38 56 L 38 57 L 38 58 L 38 59 L 38 60 L 38 61 L 38 62 L 38 63 L 38 64 L 38 65 L 38 66 L 38 67 L 38 68 L 38 69 L 38 70 L 38 71 L 38 72 L 38 73 L 38 74 L 38 75 L 38 76 L 38 77 L 38 78 L 38 79 L 38 80 L 38 81 L 38 82 L 38 83 L 38 84 L 38 85 L 38 86 L 38 87 L 38 88 L 38 89 L 38 90 L 38 91 L 38 92 L 38 93 L 38 94 L 38 95 L 38 96 L 38 97 L 38 98 L 38 99 L 38 100 L 38 101 L 38 102 L 38 103 L 38 104 L 38 105 L 38 106 L 38 107 L 38 108 L 38 109 L 38 110 L 38 111 L 38 112 L 38 113 L 38 114 L 38 115 L 38 116 L 38 117 L 38 118 L 38 119 L 38 120 L 38 121 L 38 122 L 38 123 L 38 124 L 38 125 L 38 126 L 38 127 L 38 128 L 38 129 L 38 130 L 38 131 L 38 132 L 38 133 L 38 134 L 38 135 L 38 136 L 38 137 L 38 138 L 38 139 L 38 140 L 38 141 L 38 142 L 38 143 L 38 144 L 38 145 L 38 146 L 38 147 L 38 148 L 38 149 L 38 150 L 38 151 L 38 152 L 38 153 L 38 154 L 38 155 L 38 156 L 38 157 L 38 158 L 38 159 L 38 160 L 38 161 L 38 162 L 38 163 L 38 164 L 38 165 L 38 166 L 38 167 L 38 168 L 38 169 L 38 170 L 38 171 L 38 172 L 38 173 L 38 174 L 38 175 L 38 176 L 38 177 L 38 178 L 38 179 L 38 180 L 38 181 L 38 182 L 38 183 L 38 184 L 38 185 L 38 186 L 38 187 L 38 188 L 38 189 L 38 190 L 38 191 L 38 192 L 38 193 L 38 194 L 38 195 L 38 196 L 38 197 L 38 198 L 38 199 L 38 200 L 38 201 L 38 202 L 38 203 L 38 204 L 38 205 L 38 206 L 38 207 L 38 208 L 38 209 L 38 210 L 38 211 L 38 212 L 38 213 L 38 214 L 38 215 L 38 216 L 38 217 L 38 218 L 38 219 L 38 220 L 38 221 L 38 222 L 38 223 L 38 224 L 38 225 L 38 226 L 38 227 L 38 228 L 38 229 L 38 230 L 38 231 L 38 232 L 38 233 L 38 234 L 38 235 L 38 236 L 38 237 L 38 238 L 38 239 L 38 240 L 38 241 L 38 242 L 38 243 L 38 244 L 38 245 L 38 246 L 38 247 L 38 248 L 38 249 L 38 250 L 38 251 L 38 252 L 38 253 L 38 254 L 38 255 L 38 256 L 38 257 L 38 258 L 38 259 L 38 260 L 38 261 L 38 262 L 38 263 L 38 264 L 38 265 L 38 266 L 38 267 L 38 268 L 38 269 L 38 270 L 38 271 L 38 272 L 38 273 L 38 274 L 38 275 L 38 276 L 38 277 L 38 278 L 38 279 L 38 280 L 38 281 L 38 282 L 38 283 L 38 284 L 38 285 L 38 286 L 38 287 L 38 288 L 38 289 L 38 290 L 38 291 L 38 292 L 38 293 L 38 294 L 38 295 L 38 296 L 38 297 L 38 298 L 38 299 L 38 300 L 38 301 L 38 302 L 38 303 L 38 304 L 38 305 L 38 306 L 38 307 L 38 308 L 38 309 L 38 310 L 38 311 L 38 312 L 38 313 L 38 314 L 38 315 L 38 316 L 38 317 L 38 318 L 38 319 L 38 320 L 38 321 L 38 322 L 38 323 L 38 324 L 38 325 L 38 326 L 38 327 L 38 328 L 38 329 L 38 330 L 38 331 L 38 332 L 38 333 L 38 334 L 38 335 L 38 336 L 38 337 L 38 338 L 38 339 L 38 340 L 38 341 L 38 342 L 38 343 L 38 344 L 38 345 L 38 346 L 38 347 L 38 348 L 38 349 L 38 350 L 38 351 L 38 352 L 38 353 L 38 354 L 38 355 L 38 356 L 38 357 L 38 358 L 38 359 L 38 360 L 38 361 L 38 362 L 38 363 L 38 364 L 38 365 L 38 366 L 38 367 L 38 368 L 38 369 L 38 370 L 38 371 L 38 372 L 38 373 L 38 374 L 38 375 L 38 376 L 38 377 L 38 378 L 38 379 L 38 380 L 38 381 L 38 382 L 38 383 L 38 384 L 38 385 L 38 386 L 38 387 L 38 388 L 38 389 L 38 390 L 38 391 L 38 392 L 38 393 L 38 394 L 38 395 L 38 396 L 38 397 L 38 398 L 38 399 L 38 400 L 38 401 L 38 402 L 38 403 L 38 404 L 38 405 L 38 406 L 38 407 L 38 408 L 38 409 L 38 410 L 38 411 L 38 412 L 38 413 L 38 414 L 38 415 L 38 416 L 38 417 L 38 418 L 38 419 L 38 420 L 38 421 L 38 422 L 38 423 L 38 424 L 38 425 L 38 426 L 38 427 L 38 428 L 38 429 L 38 430 L 38 431 L 38 432 L 38 433 L 38 434 L 38 435 L 38 436 L 38 437 L 38 438 L 38 439 L 38 440 L 38 441 L 38 442 L 38 443 L 38 444 L 38 445 L 38 446 L 38 447 L 38 448 L 38 449 L 38 450 L 38 451 L 38 452 L 38 453 L 38 454 L 38 455 L 38 456 L 38 457 L 38 458 L 38 459 L 38 460 L 38 461 L 38 462 L 38 463 L 38 464 L 38 465 L 38 466 L 38 467 L 38 468 L 38 469 L 38 470 L 38 471 L 38 472 L 38 473 L 38 474 L 38 475 L 38 476 L 38 477 L 38 478 L 38 479 L 38 480 L 38 481 L 38 482 L 38 483 L 38 484 L 38 485 L 38 486 L 38 487 L 38 488 L 38 489 L 38 490 L 38 491 L 38 492 L 38 493 L 38 494 L 38 495 L 38 496 L 38 497 L 38 498 L 38 499 L 38 500 L 38 501 L 38 502 L 38 503 L 38 504 L 38 505 L 38 506 L 38 507 L 38 508 L 38 509 L 38 510 L 38 511 L 38 512 L 38 513 L 38 514 L 38 515 L 38 516 L 38 517 L 38 518 L 38 519 L 38 520 L 38 521 L 38 522 L 39 522 L 40 523 L 40 524 L 41 524 L 42 524 L 43 524 L 44 524 L 45 524 L 46 524 L 47 524 L 48 524 L 49 524 L 50 524 L 51 524 L 52 524 L 53 524 L 54 524 L 55 524 L 56 524 L 57 524 L 58 524 L 59 524 L 60 524 L 61 524 L 62 524 L 63 524 L 64 524 L 65 524 L 66 524 L 67 524 L 68 524 L 69 524 L 70 524 L 71 524 L 72 524 L 73 524 L 74 524 L 75 524 L 76 524 L 77 524 L 78 524 L 79 524 L 80 524 L 81 524 L 82 524 L 83 524 L 84 524 L 85 524 L 86 524 L 87 524 L 88 524 L 89 524 L 90 524 L 91 524 L 92 524 L 93 524 L 94 524 L 95 524 L 96 524 L 97 524 L 98 524 L 99 524 L 100 524 L 101 524 L 102 524 L 103 524 L 104 524 L 105 524 L 106 524 L 107 524 L 108 524 L 109 524 L 110 524 L 111 524 L 112 524 L 113 524 L 114 524 L 115 524 L 116 524 L 117 524 L 118 524 L 119 524 L 120 524 L 121 524 L 122 524 L 123 524 L 124 524 L 125 524 L 126 524 L 127 524 L 128 524 L 129 524 L 130 524 L 131 524 L 132 524 L 133 524 L 134 524 L 135 524 L 136 524 L 137 524 L 138 524 L 139 524 L 140 524 L 141 524 L 142 524 L 143 524 L 144 524 L 145 524 L 146 524 L 147 524 L 148 524 L 149 524 L 150 524 L 151 524 L 152 524 L 153 524 L 154 524 L 155 524 L 156 524 L 157 524 L 158 524 L 159 524 L 160 524 L 161 524 L 162 524 L 163 524 L 164 524 L 165 524 L 166 524 L 167 524 L 168 524 L 169 524 L 170 524 L 171 524 L 172 524 L 173 524 L 174 524 L 175 524 L 176 524 L 177 524 L 178 524 L 179 524 L 180 524 L 181 524 L 182 524 L 183 524 L 184 524 L 185 524 L 186 524 L 187 524 L 188 524 L 189 524 L 190 523 L 191 524 L 192 524 L 193 524 L 193 523 L 194 522 L 195 522 L 196 522 L 197 522 L 198 522 L 199 522 L 200 522 L 201 522 L 202 522 L 203 522 L 204 522 L 205 522 L 206 522 L 207 522 L 208 522 L 209 522 L 210 522 L 211 522 L 212 522 L 213 522 L 214 522 L 215 522 L 216 522 L 217 522 L 218 522 L 219 522 L 220 522 L 221 522 L 222 522 L 223 522 L 224 522 L 225 522 L 226 522 L 227 522 L 228 522 L 229 522 L 230 522 L 231 522 L 232 522 L 233 522 L 234 522 L 235 522 L 236 522 L 237 522 L 238 522 L 239 522 L 240 522 L 241 522 L 242 522 L 243 522 L 244 522 L 245 522 L 246 522 L 247 522 L 248 522 L 249 522 L 250 522 L 251 522 L 252 522 L 253 522 L 254 522 L 255 522 L 256 522 L 257 522 L 258 522 L 259 522 L 260 522 L 261 522 L 262 522 L 263 522 L 264 522 L 265 522 L 266 522 L 267 522 L 268 522 L 269 522 L 270 522 L 271 522 L 272 523 L 272 524 L 273 524 L 274 524 L 275 524 L 276 524 L 277 524 L 278 524 L 278 523 L 279 522 L 279 521 L 278 520 L 277 519 L 277 518 L 276 518 L 275 517 L 274 516 L 274 515 L 273 515 L 272 514 L 272 513 L 271 513 L 270 512 L 270 511 L 269 511 L 268 510 L 267 509 L 267 508 L 266 508 L 265 507 L 265 506 L 264 506 L 263 505 L 263 504 L 262 503 L 261 503 L 260 502 L 260 501 L 259 501 L 258 500 L 258 499 L 257 498 L 256 498 L 255 497 L 255 496 L 254 496 L 253 495 L 253 494 L 252 493 L 251 493 L 250 492 L 250 491 L 249 491 L 248 490 L 248 489 L 247 488 L 246 488 L 245 487 L 245 486 L 244 486 L 243 485 L 243 484 L 242 484 L 241 483 L 240 482 L 240 481 L 239 481 L 238 480 L 238 479 L 237 479 L 236 478 L 236 477 L 235 476 L 234 476 L 233 475 L 233 474 L 232 474 L 231 473 L 231 472 L 230 471 L 229 471 L 228 470 L 228 469 L 227 469 L 226 468 L 226 467 L 225 466 L 224 466 L 223 465 L 223 464 L 222 464 L 221 463 L 221 462 L 220 461 L 219 461 L 218 460 L 218 459 L 217 459 L 216 458 L 216 457 L 215 457 L 214 456 L 214 455 L 213 454 L 212 454 L 211 453 L 211 452 L 210 452 L 209 451 L 209 450 L 208 449 L 207 449 L 206 448 L 206 447 L 205 447 L 204 446 L 204 445 L 203 444 L 202 444 L 201 443 L 201 442 L 200 442 L 199 441 L 199 440 L 198 439 L 197 439 L 196 438 L 196 437 L 195 437 L 194 436 L 194 435 L 193 435 L 192 434 L 191 433 L 191 432 L 190 432 L 189 431 L 189 430 L 188 430 L 187 429 L 187 428 L 186 427 L 185 427 L 184 427 L 183 427 L 182 426 L 182 425 L 181 425 L 180 425 L 179 425 L 178 425 L 177 425 L 176 425 L 175 425 L 174 425 L 173 425 L 172 425 L 171 425 L 170 425 L 169 425 L 168 425 L 167 425 L 166 425 L 165 425 L 164 425 L 163 425 L 162 425 L 161 425 L 160 425 L 159 425 L 158 425 L 157 425 L 156 425 L 155 425 L 154 425 L 153 425 L 152 426 L 151 425 L 150 425 L 149 424 L 149 423 L 149 422 L 149 421 L 149 420 L 149 419 L 149 418 L 149 417 L 149 416 L 149 415 L 149 414 L 149 413 L 149 412 L 149 411 L 149 410 L 149 409 L 149 408 L 149 407 L 149 406 L 149 405 L 149 404 L 149 403 L 149 402 L 149 401 L 149 400 L 149 399 L 149 398 L 149 397 L 149 396 L 149 395 L 149 394 L 149 393 L 149 392 L 149 391 L 149 390 L 149 389 L 149 388 L 149 387 L 149 386 L 149 385 L 149 384 L 149 383 L 149 382 L 149 381 L 149 380 L 149 379 L 149 378 L 149 377 L 149 376 L 149 375 L 149 374 L 149 373 L 149 372 L 149 371 L 149 370 L 149 369 L 149 368 L 149 367 L 149 366 L 149 365 L 149 364 L 149 363 L 149 362 L 149 361 L 149 360 L 149 359 L 149 358 L 149 357 L 149 356 L 149 355 L 149 354 L 149 353 L 149 352 L 149 351 L 149 350 L 149 349 L 149 348 L 149 347 L 149 346 L 149 345 L 149 344 L 149 343 L 149 342 L 149 341 L 149 340 L 149 339 L 149 338 L 149 337 L 149 336 L 149 335 L 149 334 L 149 333 L 149 332 L 149 331 L 149 330 L 149 329 L 149 328 L 149 327 L 149 326 L 149 325 L 149 324 L 149 323 L 149 322 L 149 321 L 149 320 L 149 319 L 149 318 L 149 317 L 149 316 L 149 315 L 149 314 L 149 313 L 149 312 L 149 311 L 149 310 L 149 309 L 149 308 L 149 307 L 149 306 L 149 305 L 149 304 L 149 303 L 149 302 L 149 301 L 149 300 L 149 299 L 149 298 L 149 297 L 149 296 L 149 295 L 149 294 L 149 293 L 149 292 L 149 291 L 149 290 L 149 289 L 149 288 L 149 287 L 149 286 L 149 285 L 149 284 L 149 283 L 149 282 L 149 281 L 149 280 L 149 279 L 149 278 L 149 277 L 149 276 L 149 275 L 149 274 L 149 273 L 149 272 L 149 271 L 149 270 L 149 269 L 149 268 L 149 267 L 149 266 L 149 265 L 149 264 L 149 263 L 149 262 L 149 261 L 149 260 L 149 259 L 149 258 L 149 257 L 149 256 L 149 255 L 149 254 L 149 253 L 149 252 L 149 251 L 149 250 L 149 249 L 149 248 L 149 247 L 149 246 L 149 245 L 149 244 L 149 243 L 149 242 L 149 241 L 149 240 L 149 239 L 149 238 L 149 237 L 149 236 L 149 235 L 149 234 L 149 233 L 149 232 L 149 231 L 149 230 L 149 229 L 149 228 L 149 227 L 149 226 L 149 225 L 149 224 L 149 223 L 149 222 L 149 221 L 149 220 L 149 219 L 149 218 L 149 217 L 149 216 L 149 215 L 149 214 L 149 213 L 149 212 L 149 211 L 149 210 L 149 209 L 149 208 L 149 207 L 149 206 L 149 205 L 149 204 L 149 203 L 149 202 L 149 201 L 149 200 L 149 199 L 149 198 L 149 197 L 149 196 L 149 195 L 149 194 L 149 193 L 149 192 L 149 191 L 149 190 L 149 189 L 149 188 L 149 187 L 149 186 L 149 185 L 149 184 L 149 183 L 149 182 L 149 181 L 149 180 L 149 179 L 149 178 L 149 177 L 149 176 L 149 175 L 149 174 L 149 173 L 149 172 L 149 171 L 149 170 L 149 169 L 149 168 L 149 167 L 149 166 L 149 165 L 149 164 L 149 163 L 149 162 L 149 161 L 149 160 L 149 159 L 149 158 L 149 157 L 149 156 L 149 155 L 148 155 L 147 154 L 147 153 L 146 153 L 145 152 L 145 151 L 144 151 L 143 150 L 142 149 L 142 148 L 141 148 L 140 147 L 140 146 L 139 146 L 138 145 L 137 144 L 137 143 L 136 143 L 135 142 L 135 141 L 134 141 L 133 140 L 133 139 L 132 138 L 131 138 L 130 137 L 130 136 L 129 136 L 128 135 L 128 134 L 127 133 L 126 133 L 125 132 L 125 131 L 124 131 L 123 130 L 123 129 L 122 128 L 121 128 L 120 127 L 120 126 L 119 126 L 118 125 L 118 124 L 117 124 L 116 123 L 115 122 L 115 121 L 114 121 L 113 120 L 113 119 L 112 119 L 111 118 L 111 117 L 110 116 L 109 116 L 108 115 L 108 114 L 107 114 L 106 113 L 106 112 L 105 111 L 104 111 L 103 110 L 103 109 L 102 109 L 101 108 L 101 107 L 100 106 L 99 106 L 98 105 L 98 104 L 97 104 L 96 103 L 96 102 L 95 102 L 94 101 L 93 100 L 93 99 L 92 99 L 91 98 L 91 97 L 90 97 L 89 96 L 88 95 L 88 94 L 87 94 L 86 93 L 86 92 L 85 92 L 84 91 L 84 90 L 83 89 L 82 89 L 81 88 L 81 87 L 80 87 L 79 86 L 79 85 L 78 84 L 77 84 L 76 83 L 76 82 L 75 82 L 74 81 L 74 80 L 73 80 L 72 79 L 71 78 L 71 77 L 70 77 L 69 76 L 69 75 L 68 75 L 67 74 L 66 73 L 66 72 L 65 72 L 64 71 L 64 70 L 63 70 L 62 69 L 62 68 L 61 67 L 60 67 L 59 66 L 59 65 L 58 65 L 57 64 L 57 63 L 56 62 L 55 62 L 54 61 L 54 60 L 53 60 L 52 59 L 52 58 L 51 57 L 50 57 L 49 56 L 49 55 L 48 55 L 47 54 L 47 53 L 46 53 L 45 52 L 44 51 L 44 50 L 43 50 L 42 49 L 42 48 L 41 48 L 40 48 L 39 48 Z" fill="#FFFFFF"/>
  <path d="M 141 46 L 142 47 L 141 48 L 141 49 L 142 50 L 143 51 L 144 52 L 145 53 L 146 54 L 146 55 L 147 56 L 147 57 L 148 58 L 148 59 L 148 60 L 149 61 L 150 62 L 151 63 L 151 64 L 152 64 L 153 65 L 153 66 L 154 66 L 155 67 L 156 68 L 156 69 L 157 69 L 158 70 L 158 71 L 159 71 L 160 72 L 161 73 L 162 74 L 163 75 L 163 76 L 164 76 L 165 77 L 165 78 L 166 79 L 167 79 L 168 80 L 168 81 L 169 81 L 170 82 L 170 83 L 171 83 L 172 84 L 173 85 L 173 86 L 174 86 L 175 87 L 175 88 L 176 88 L 177 89 L 178 90 L 178 91 L 179 91 L 180 92 L 180 93 L 181 93 L 182 94 L 183 95 L 184 96 L 185 97 L 185 98 L 186 98 L 187 99 L 188 100 L 189 101 L 190 102 L 190 103 L 191 103 L 192 104 L 193 105 L 194 106 L 195 107 L 195 108 L 196 108 L 197 109 L 197 110 L 198 110 L 199 111 L 200 112 L 200 113 L 201 113 L 202 114 L 202 115 L 203 115 L 204 116 L 205 117 L 205 118 L 206 118 L 207 119 L 207 120 L 208 120 L 209 121 L 209 122 L 210 123 L 211 123 L 212 124 L 212 125 L 213 125 L 214 126 L 215 127 L 215 128 L 216 128 L 217 129 L 217 130 L 218 130 L 219 131 L 219 132 L 220 132 L 221 133 L 222 134 L 222 135 L 223 135 L 224 136 L 225 137 L 226 137 L 227 138 L 228 138 L 229 138 L 230 138 L 231 139 L 231 140 L 232 140 L 233 140 L 234 141 L 234 142 L 235 142 L 236 142 L 237 143 L 238 143 L 239 144 L 240 145 L 241 145 L 242 145 L 243 146 L 243 147 L 244 147 L 245 148 L 245 149 L 246 150 L 247 150 L 248 151 L 249 152 L 249 153 L 250 153 L 251 154 L 251 155 L 251 156 L 252 157 L 253 158 L 253 159 L 254 160 L 255 161 L 254 162 L 255 161 L 256 162 L 256 163 L 256 164 L 256 165 L 256 166 L 256 167 L 257 168 L 258 169 L 258 170 L 258 171 L 258 172 L 258 173 L 258 174 L 258 175 L 258 176 L 258 177 L 258 178 L 258 179 L 258 180 L 258 181 L 258 182 L 258 183 L 258 184 L 258 185 L 258 186 L 258 187 L 258 188 L 258 189 L 258 190 L 258 191 L 258 192 L 258 193 L 258 194 L 258 195 L 257 196 L 256 196 L 256 197 L 256 198 L 256 199 L 256 200 L 255 201 L 254 201 L 254 202 L 254 203 L 254 204 L 253 205 L 253 206 L 252 207 L 251 208 L 251 209 L 251 210 L 250 211 L 249 211 L 249 212 L 249 213 L 249 214 L 249 215 L 248 216 L 247 216 L 246 216 L 245 217 L 244 217 L 243 218 L 242 219 L 241 220 L 240 221 L 239 221 L 238 222 L 237 222 L 236 222 L 236 223 L 235 224 L 234 224 L 233 224 L 232 224 L 233 225 L 232 226 L 231 226 L 230 226 L 229 226 L 228 226 L 227 227 L 226 226 L 225 227 L 224 227 L 223 227 L 222 228 L 221 229 L 220 229 L 219 229 L 218 229 L 217 229 L 216 229 L 215 229 L 214 229 L 213 229 L 213 230 L 212 231 L 211 231 L 210 231 L 209 231 L 208 231 L 207 231 L 206 231 L 205 232 L 204 232 L 203 232 L 202 232 L 201 232 L 200 232 L 199 232 L 198 232 L 197 232 L 196 232 L 195 232 L 194 232 L 193 232 L 192 232 L 191 232 L 190 232 L 189 232 L 188 232 L 188 233 L 187 234 L 186 235 L 185 235 L 185 236 L 185 237 L 185 238 L 185 239 L 185 240 L 185 241 L 185 242 L 185 243 L 185 244 L 185 245 L 185 246 L 185 247 L 185 248 L 185 249 L 185 250 L 185 251 L 185 252 L 185 253 L 185 254 L 185 255 L 185 256 L 185 257 L 185 258 L 185 259 L 185 260 L 185 261 L 185 262 L 185 263 L 185 264 L 185 265 L 185 266 L 185 267 L 185 268 L 185 269 L 185 270 L 185 271 L 185 272 L 185 273 L 185 274 L 185 275 L 185 276 L 185 277 L 185 278 L 185 279 L 185 280 L 185 281 L 185 282 L 185 283 L 185 284 L 185 285 L 185 286 L 185 287 L 185 288 L 185 289 L 185 290 L 185 291 L 185 292 L 185 293 L 185 294 L 185 295 L 185 296 L 185 297 L 185 298 L 185 299 L 185 300 L 185 301 L 185 302 L 185 303 L 185 304 L 185 305 L 185 306 L 185 307 L 185 308 L 185 309 L 185 310 L 185 311 L 185 312 L 185 313 L 185 314 L 185 315 L 185 316 L 185 317 L 185 318 L 185 319 L 185 320 L 185 321 L 185 322 L 185 323 L 185 324 L 185 325 L 186 326 L 186 327 L 187 327 L 188 328 L 189 328 L 190 328 L 191 328 L 192 328 L 193 328 L 194 328 L 195 328 L 196 328 L 197 328 L 198 328 L 199 328 L 200 328 L 201 328 L 202 328 L 203 328 L 204 328 L 205 328 L 206 328 L 207 328 L 208 328 L 209 328 L 210 328 L 211 328 L 212 328 L 213 328 L 214 328 L 215 328 L 216 328 L 217 328 L 218 328 L 219 328 L 220 328 L 221 328 L 222 328 L 223 328 L 224 328 L 225 328 L 226 328 L 227 328 L 228 329 L 229 329 L 230 329 L 231 329 L 232 329 L 233 329 L 234 329 L 235 329 L 236 330 L 237 329 L 238 329 L 239 329 L 240 330 L 239 331 L 240 331 L 241 331 L 242 331 L 243 331 L 244 331 L 245 331 L 246 331 L 247 331 L 248 332 L 248 333 L 249 333 L 250 333 L 251 333 L 252 333 L 253 334 L 254 334 L 255 334 L 256 334 L 257 334 L 258 335 L 258 336 L 259 336 L 260 336 L 261 336 L 262 337 L 263 338 L 264 338 L 265 339 L 266 339 L 267 339 L 268 339 L 269 340 L 269 341 L 270 341 L 271 342 L 271 343 L 272 343 L 273 344 L 274 344 L 275 345 L 276 346 L 277 346 L 278 347 L 277 348 L 278 348 L 279 348 L 280 349 L 280 350 L 281 351 L 282 351 L 283 352 L 282 353 L 283 354 L 284 355 L 285 356 L 285 357 L 285 358 L 286 359 L 286 360 L 286 361 L 286 362 L 287 363 L 288 364 L 288 365 L 288 366 L 288 367 L 289 368 L 288 369 L 288 370 L 288 369 L 289 368 L 290 369 L 290 370 L 290 371 L 290 372 L 290 373 L 290 374 L 290 375 L 290 376 L 290 377 L 290 378 L 290 379 L 290 380 L 290 381 L 290 382 L 290 383 L 290 384 L 291 385 L 290 386 L 290 387 L 290 388 L 290 389 L 290 390 L 290 391 L 290 392 L 290 393 L 290 394 L 290 395 L 290 396 L 290 397 L 290 398 L 290 399 L 289 400 L 288 401 L 289 400 L 290 401 L 290 402 L 290 403 L 289 404 L 288 404 L 288 405 L 287 406 L 286 407 L 285 408 L 286 409 L 285 410 L 285 411 L 284 412 L 283 413 L 283 414 L 282 415 L 282 416 L 281 417 L 280 417 L 279 418 L 278 419 L 278 420 L 277 421 L 276 422 L 276 423 L 277 424 L 278 425 L 278 426 L 279 426 L 280 427 L 281 428 L 281 429 L 282 429 L 283 429 L 284 430 L 283 431 L 284 431 L 285 432 L 286 432 L 287 432 L 288 433 L 288 434 L 289 434 L 290 435 L 290 436 L 290 437 L 291 437 L 292 438 L 292 439 L 293 439 L 294 439 L 295 440 L 295 441 L 295 442 L 295 443 L 296 442 L 297 443 L 298 444 L 299 444 L 300 445 L 300 446 L 301 446 L 302 447 L 303 448 L 304 449 L 303 450 L 304 449 L 305 450 L 305 451 L 306 451 L 307 452 L 307 453 L 308 453 L 309 454 L 308 455 L 309 456 L 310 457 L 310 458 L 311 458 L 312 459 L 312 460 L 313 459 L 314 460 L 314 461 L 315 462 L 315 463 L 316 463 L 317 464 L 318 465 L 319 466 L 320 467 L 320 468 L 321 468 L 322 469 L 323 470 L 324 471 L 325 472 L 325 473 L 326 473 L 327 474 L 327 475 L 328 475 L 329 476 L 330 477 L 331 478 L 332 479 L 332 480 L 333 480 L 334 481 L 335 482 L 335 483 L 336 483 L 337 484 L 337 485 L 338 485 L 339 486 L 340 487 L 341 488 L 342 489 L 343 490 L 344 491 L 345 491 L 346 492 L 346 493 L 347 494 L 347 495 L 348 495 L 349 496 L 349 497 L 350 497 L 351 497 L 352 497 L 353 497 L 354 497 L 355 497 L 355 496 L 356 495 L 356 494 L 357 493 L 358 493 L 359 493 L 360 492 L 361 492 L 361 491 L 362 490 L 363 490 L 363 489 L 364 488 L 365 488 L 366 488 L 366 487 L 367 486 L 368 486 L 368 485 L 369 484 L 370 483 L 371 483 L 371 482 L 372 481 L 373 480 L 373 479 L 374 478 L 375 479 L 375 478 L 375 477 L 376 476 L 377 476 L 378 475 L 378 474 L 379 473 L 380 473 L 380 472 L 381 471 L 382 471 L 383 470 L 382 469 L 383 468 L 383 467 L 384 466 L 385 466 L 385 465 L 386 464 L 387 463 L 387 462 L 388 461 L 389 461 L 388 460 L 389 459 L 390 458 L 390 457 L 391 456 L 392 456 L 392 455 L 392 454 L 393 453 L 394 453 L 394 452 L 394 451 L 395 450 L 395 449 L 395 448 L 395 447 L 396 446 L 397 446 L 397 445 L 397 444 L 397 443 L 398 442 L 399 441 L 399 440 L 400 439 L 400 438 L 400 437 L 400 436 L 400 435 L 400 434 L 401 433 L 402 432 L 402 431 L 402 430 L 402 429 L 402 428 L 402 427 L 402 426 L 403 425 L 404 425 L 404 424 L 404 423 L 404 422 L 404 421 L 404 420 L 405 419 L 405 418 L 405 417 L 405 416 L 405 415 L 405 414 L 405 413 L 405 412 L 405 411 L 406 410 L 407 409 L 406 408 L 407 407 L 407 406 L 407 405 L 407 404 L 407 403 L 407 402 L 407 401 L 407 400 L 407 399 L 407 398 L 407 397 L 407 396 L 407 395 L 407 394 L 407 393 L 407 392 L 407 391 L 407 390 L 407 389 L 407 388 L 407 387 L 407 386 L 407 385 L 407 384 L 407 383 L 407 382 L 407 381 L 407 380 L 407 379 L 407 378 L 407 377 L 407 376 L 407 375 L 407 374 L 407 373 L 407 372 L 407 371 L 407 370 L 407 369 L 406 368 L 407 367 L 406 368 L 405 367 L 405 366 L 406 365 L 406 364 L 405 363 L 405 362 L 405 361 L 405 360 L 404 359 L 404 358 L 404 357 L 404 356 L 404 355 L 404 354 L 404 353 L 403 352 L 402 351 L 403 350 L 404 350 L 403 349 L 402 348 L 402 347 L 402 346 L 401 345 L 400 344 L 400 343 L 400 342 L 400 341 L 399 340 L 399 339 L 399 338 L 399 337 L 399 336 L 398 336 L 397 335 L 397 334 L 397 333 L 397 332 L 397 331 L 396 332 L 395 331 L 395 330 L 395 329 L 394 328 L 394 327 L 394 326 L 394 325 L 393 325 L 392 324 L 392 323 L 392 322 L 391 322 L 390 321 L 390 320 L 389 320 L 388 319 L 388 318 L 388 317 L 387 316 L 387 315 L 386 315 L 385 314 L 385 313 L 385 312 L 384 312 L 383 311 L 383 310 L 382 309 L 381 308 L 380 307 L 379 307 L 378 306 L 379 305 L 378 305 L 377 304 L 377 303 L 377 302 L 376 302 L 375 302 L 374 301 L 375 300 L 374 301 L 373 300 L 372 299 L 372 298 L 372 297 L 371 297 L 370 297 L 369 297 L 368 296 L 368 295 L 367 295 L 366 294 L 365 293 L 364 293 L 363 292 L 362 292 L 361 291 L 361 290 L 360 289 L 359 288 L 358 288 L 357 288 L 356 287 L 355 286 L 354 285 L 353 285 L 352 285 L 351 285 L 350 284 L 350 283 L 349 283 L 348 283 L 347 283 L 346 282 L 345 281 L 344 281 L 343 280 L 342 280 L 341 280 L 340 280 L 339 279 L 338 278 L 337 278 L 336 278 L 335 278 L 334 277 L 333 276 L 332 276 L 331 276 L 330 276 L 329 275 L 328 275 L 327 275 L 326 275 L 325 275 L 324 274 L 323 273 L 322 273 L 321 273 L 320 273 L 319 273 L 318 273 L 317 273 L 316 272 L 315 272 L 314 271 L 313 271 L 312 270 L 312 269 L 312 268 L 313 267 L 314 267 L 315 266 L 316 267 L 315 266 L 316 265 L 317 265 L 318 265 L 318 264 L 319 263 L 320 263 L 321 263 L 322 262 L 323 262 L 323 261 L 324 260 L 325 259 L 326 259 L 327 258 L 328 257 L 329 257 L 329 256 L 330 255 L 331 255 L 331 254 L 332 253 L 333 253 L 334 252 L 334 251 L 335 250 L 336 250 L 336 249 L 337 248 L 338 248 L 338 247 L 339 246 L 340 246 L 341 245 L 341 244 L 342 243 L 343 242 L 343 241 L 344 240 L 345 240 L 345 239 L 345 238 L 346 237 L 347 236 L 348 236 L 348 235 L 348 234 L 349 233 L 350 232 L 351 231 L 351 230 L 351 229 L 352 228 L 353 227 L 353 226 L 353 225 L 354 224 L 355 223 L 355 222 L 355 221 L 356 220 L 356 219 L 356 218 L 356 217 L 357 216 L 358 217 L 358 216 L 358 215 L 358 214 L 358 213 L 358 212 L 359 211 L 360 211 L 360 210 L 360 209 L 360 208 L 360 207 L 361 206 L 361 205 L 361 204 L 361 203 L 361 202 L 361 201 L 362 200 L 363 201 L 362 200 L 363 199 L 363 198 L 363 197 L 363 196 L 363 195 L 363 194 L 363 193 L 363 192 L 363 191 L 364 190 L 365 191 L 364 190 L 365 189 L 365 188 L 365 187 L 365 186 L 365 185 L 365 184 L 365 183 L 365 182 L 365 181 L 365 180 L 365 179 L 365 178 L 365 177 L 365 176 L 365 175 L 365 174 L 365 173 L 365 172 L 365 171 L 365 170 L 365 169 L 366 168 L 365 167 L 365 166 L 365 165 L 365 164 L 365 163 L 365 162 L 365 161 L 365 160 L 365 159 L 365 158 L 365 157 L 365 156 L 365 155 L 365 154 L 365 153 L 365 152 L 365 151 L 365 150 L 365 149 L 365 148 L 365 147 L 365 146 L 364 147 L 363 146 L 363 145 L 363 144 L 363 143 L 363 142 L 363 141 L 363 140 L 363 139 L 363 138 L 363 137 L 363 136 L 362 136 L 361 135 L 362 134 L 361 133 L 361 132 L 361 131 L 361 130 L 361 129 L 360 128 L 360 127 L 360 126 L 359 125 L 358 124 L 358 123 L 358 122 L 358 121 L 358 120 L 358 119 L 357 119 L 356 118 L 356 117 L 356 116 L 356 115 L 356 114 L 356 113 L 355 112 L 355 111 L 354 110 L 354 109 L 353 108 L 353 107 L 352 107 L 351 106 L 351 105 L 351 104 L 351 103 L 351 102 L 350 102 L 349 101 L 348 100 L 348 99 L 347 99 L 346 98 L 346 97 L 346 96 L 345 95 L 345 94 L 344 94 L 343 93 L 343 92 L 343 91 L 342 92 L 341 91 L 341 90 L 340 89 L 339 89 L 338 88 L 338 87 L 337 86 L 336 85 L 335 84 L 334 83 L 334 82 L 333 82 L 332 81 L 331 80 L 331 79 L 330 80 L 329 79 L 328 78 L 328 77 L 327 77 L 326 76 L 325 75 L 324 75 L 323 74 L 322 74 L 321 74 L 320 73 L 319 72 L 318 72 L 317 72 L 316 71 L 317 70 L 316 70 L 315 70 L 314 69 L 313 69 L 312 68 L 311 67 L 310 67 L 309 67 L 308 66 L 307 65 L 306 65 L 305 65 L 304 64 L 304 63 L 303 63 L 302 63 L 301 63 L 300 62 L 299 62 L 298 62 L 297 61 L 297 60 L 296 60 L 295 60 L 294 60 L 293 60 L 292 59 L 291 59 L 290 58 L 289 58 L 288 57 L 287 57 L 286 57 L 285 57 L 284 57 L 283 57 L 282 56 L 281 55 L 280 55 L 279 55 L 278 54 L 277 53 L 276 53 L 275 53 L 274 53 L 273 53 L 272 53 L 271 53 L 270 52 L 269 53 L 268 52 L 267 52 L 266 52 L 265 52 L 264 52 L 263 52 L 262 51 L 263 50 L 262 50 L 261 50 L 260 50 L 259 50 L 258 50 L 257 50 L 256 50 L 255 50 L 254 50 L 253 50 L 252 50 L 251 50 L 250 50 L 249 49 L 250 48 L 249 48 L 248 48 L 247 48 L 246 48 L 245 48 L 244 48 L 243 48 L 242 48 L 241 48 L 240 48 L 239 48 L 238 48 L 237 48 L 236 48 L 235 48 L 234 48 L 233 48 L 232 48 L 231 48 L 230 48 L 229 48 L 228 48 L 227 48 L 226 48 L 225 48 L 224 48 L 223 48 L 222 48 L 221 48 L 220 48 L 219 48 L 218 48 L 217 48 L 216 48 L 215 48 L 214 48 L 213 48 L 212 48 L 211 48 L 210 48 L 209 47 L 208 46 L 207 46 L 206 46 L 205 46 L 204 46 L 203 46 L 202 46 L 201 46 L 200 46 L 199 46 L 198 46 L 197 46 L 196 46 L 195 46 L 194 46 L 193 46 L 192 46 L 191 46 L 190 46 L 189 46 L 188 46 L 187 46 L 186 46 L 185 46 L 184 46 L 183 46 L 182 46 L 181 46 L 180 46 L 179 46 L 178 46 L 177 46 L 176 46 L 175 46 L 174 46 L 173 46 L 172 46 L 171 46 L 170 46 L 169 46 L 168 46 L 167 46 L 166 46 L 165 46 L 164 46 L 163 46 L 162 46 L 161 46 L 160 46 L 159 46 L 158 46 L 157 46 L 156 46 L 155 46 L 154 46 L 153 46 L 152 47 L 151 47 L 150 47 L 149 46 L 148 46 L 147 46 L 146 46 L 145 46 L 144 46 L 143 46 L 142 46 Z" fill="#0CC1E0"/>
</svg>
